<svg width="740" height="475" viewBox="0 0 740 475" fill="none" xmlns="http://www.w3.org/2000/svg">
<rect width="740" height="475" fill="#1E1E1E"/>
<g id="gamblers_fallacy">
<rect width="740" height="475" fill="white"/>
<g id="roulette_wheel">
<circle id="wheel_main" cx="250.5" cy="217.5" r="199" fill="#DBD0BF" stroke="#4F4F4F" stroke-width="9"/>
<circle id="red/black" cx="246.561" cy="217.5" r="135.229" stroke="#4F4F4F" stroke-width="42" stroke-dasharray="50 50"/>
<circle id="red/black_2" cx="246.561" cy="217.5" r="135.731" transform="rotate(-22.4228 246.561 217.5)" stroke="#E17171" stroke-width="42" stroke-dasharray="50 50"/>
<path id="Arrow 1" d="M188.289 156.196L188.212 168.443L200.46 168.52L200.537 156.273L188.289 156.196ZM304.179 273.552L304.256 261.305L292.009 261.228L291.932 273.475L304.179 273.552ZM193.307 163.412L297.027 268.444L299.161 266.336L195.442 161.304L193.307 163.412Z" fill="#4F4F4F"/>
<path id="Arrow 2" d="M304.547 156.562H292.299V168.809H304.547V156.562ZM187.921 273.187H200.169V260.939H187.921V273.187ZM297.362 161.625L192.985 266.002L195.106 268.124L299.484 163.746L297.362 161.625Z" fill="#4F4F4F"/>
<circle id="Ellipse 18" cx="246.234" cy="215.531" r="19.0371" fill="#4F4F4F"/>
</g>
<g id="slot_machine">
<g id="lever">
<line id="Line 2" x1="633.218" y1="228.882" x2="653.351" y2="234.854" stroke="black" stroke-width="8"/>
<line id="Line 3" x1="648.378" y1="237.551" x2="678.521" y2="135.927" stroke="black" stroke-width="8"/>
<line id="Line 4" x1="673.691" y1="138.145" x2="697.659" y2="145.255" stroke="black" stroke-width="7"/>
<circle id="Ellipse 19" cx="705.523" cy="148.63" r="13.5" transform="rotate(16.5207 705.523 148.63)" fill="#4F4F4F"/>
</g>
<rect id="Rectangle 9" x="625.661" y="201.608" width="21" height="46" rx="4" transform="rotate(16.5207 625.661 201.608)" fill="#9B9797"/>
<rect id="slot_main" x="379.076" y="65.8854" width="281" height="155" rx="14" transform="rotate(16.5207 379.076 65.8854)" fill="#4F4F4F"/>
<g id="windows">
<rect id="Rectangle 6" x="396.292" y="88.7239" width="74" height="121" rx="15" transform="rotate(16.5207 396.292 88.7239)" fill="white"/>
<rect id="Rectangle 7" x="473.948" y="111.757" width="74" height="121" rx="15" transform="rotate(16.5207 473.948 111.757)" fill="white"/>
<rect id="Rectangle 8" x="551.604" y="134.79" width="74" height="121" rx="15" transform="rotate(16.5207 551.604 134.79)" fill="white"/>
</g>
<path id="$" d="M399.156 189.707L400.327 185.759L391.749 183.215L397.926 162.391L406.207 164.848L402.9 176C402.802 176.329 402.918 176.542 403.246 176.64L412.021 179.242C412.35 179.34 412.563 179.224 412.66 178.895L417.735 162.147C417.833 161.818 417.717 161.604 417.389 161.507L407.431 158.553C404.802 157.774 403.008 156.347 402.05 154.273C401.158 152.219 401.131 149.777 401.97 146.948L406.097 133.032C406.898 130.335 408.406 128.384 410.622 127.18C412.904 125.996 415.393 125.804 418.087 126.603L418.383 126.691L419.554 122.743L428.723 125.463L427.552 129.41L436.13 131.954L430.861 149.719L422.579 147.262L424.979 139.17C425.077 138.841 424.961 138.628 424.633 138.53L415.858 135.927C415.529 135.83 415.316 135.946 415.219 136.275L411.384 149.203C411.286 149.532 411.402 149.745 411.731 149.843L420.505 152.446C423.397 153.303 425.411 154.831 426.547 157.029C427.702 159.162 427.87 161.609 427.051 164.373L421.781 182.137C421.001 184.769 419.46 186.71 417.158 187.96C414.942 189.164 412.486 189.366 409.792 188.567L409.496 188.479L408.325 192.427L399.156 189.707Z" fill="#408D47"/>
<path id="$_2" d="M476.812 212.74L477.983 208.793L469.405 206.249L475.582 185.425L483.864 187.881L480.556 199.033C480.458 199.362 480.574 199.575 480.902 199.673L489.677 202.275C490.006 202.373 490.219 202.257 490.316 201.928L495.391 185.18C495.489 184.851 495.373 184.638 495.045 184.54L485.087 181.587C482.458 180.807 480.664 179.38 479.706 177.306C478.814 175.252 478.787 172.81 479.626 169.981L483.754 156.066C484.554 153.368 486.062 151.417 488.278 150.214C490.56 149.029 493.049 148.837 495.744 149.636L496.039 149.724L497.21 145.776L506.379 148.496L505.208 152.444L513.786 154.988L508.517 172.752L500.235 170.296L502.635 162.203C502.733 161.874 502.617 161.661 502.289 161.563L493.514 158.961C493.186 158.863 492.972 158.979 492.875 159.308L489.04 172.237C488.943 172.566 489.058 172.779 489.387 172.876L498.161 175.479C501.053 176.337 503.067 177.865 504.203 180.063C505.358 182.195 505.526 184.643 504.707 187.406L499.438 205.17C498.657 207.802 497.116 209.743 494.814 210.993C492.598 212.197 490.142 212.399 487.448 211.6L487.152 211.512L485.981 215.46L476.812 212.74Z" fill="#408D47"/>
<path id="$_3" d="M559.262 237.195L560.433 233.248L551.855 230.704L558.032 209.88L566.313 212.336L563.005 223.488C562.908 223.817 563.023 224.03 563.352 224.128L572.127 226.731C572.455 226.828 572.668 226.712 572.766 226.383L577.841 209.635C577.939 209.306 577.823 209.093 577.494 208.995L567.537 206.042C564.908 205.262 563.114 203.835 562.156 201.761C561.263 199.707 561.237 197.265 562.076 194.436L566.203 180.521C567.003 177.823 568.512 175.873 570.728 174.669C573.01 173.485 575.498 173.292 578.193 174.091L578.489 174.179L579.66 170.231L588.829 172.951L587.658 176.899L596.235 179.443L590.966 197.207L582.685 194.751L585.085 186.658C585.183 186.329 585.067 186.116 584.739 186.018L575.964 183.416C575.635 183.318 575.422 183.434 575.325 183.763L571.49 196.692C571.392 197.021 571.508 197.234 571.836 197.331L580.611 199.934C583.503 200.792 585.517 202.32 586.653 204.518C587.808 206.65 587.976 209.098 587.156 211.861L581.887 229.626C581.107 232.257 579.566 234.198 577.264 235.448C575.048 236.652 572.592 236.854 569.897 236.055L569.602 235.967L568.431 239.915L559.262 237.195Z" fill="#408D47"/>
</g>
<g id="card_Q">
<g id="playing card">
<mask id="path-19-inside-1_0_1" fill="white">
<rect x="511" y="314.787" width="90.3199" height="137.857" rx="10" transform="rotate(-15.2698 511 314.787)"/>
</mask>
<rect x="511" y="314.787" width="90.3199" height="137.857" rx="10" transform="rotate(-15.2698 511 314.787)" fill="#F4F4F4" stroke="#403939" stroke-width="22" mask="url(#path-19-inside-1_0_1)"/>
</g>
<g id="Q">
<g id="Ellipse 1">
<mask id="path-20-inside-2_0_1" fill="white">
<ellipse cx="538.521" cy="331.364" rx="9.50736" ry="11.0919" transform="rotate(-15.2698 538.521 331.364)"/>
</mask>
<path d="M538.046 331.494C538.249 332.236 538.104 332.733 538.034 332.882C538.003 332.946 538.019 332.882 538.152 332.764C538.298 332.634 538.527 332.495 538.809 332.418L544.076 351.712C555.811 348.508 560.012 336.016 557.34 326.227L538.046 331.494ZM538.809 332.418C539.09 332.341 539.359 332.345 539.55 332.382C539.725 332.416 539.771 332.463 539.712 332.423C539.576 332.331 539.199 331.977 538.997 331.235L519.703 336.502C522.375 346.291 532.341 354.915 544.076 351.712L538.809 332.418ZM538.997 331.235C538.794 330.493 538.938 329.996 539.009 329.847C539.039 329.783 539.024 329.847 538.89 329.965C538.744 330.095 538.515 330.234 538.234 330.311L532.966 311.017C521.232 314.221 517.03 326.713 519.703 336.502L538.997 331.235ZM538.234 330.311C537.952 330.388 537.684 330.384 537.493 330.347C537.317 330.313 537.272 330.265 537.33 330.305C537.467 330.398 537.843 330.752 538.046 331.494L557.34 326.227C554.668 316.438 544.701 307.814 532.966 311.017L538.234 330.311Z" fill="#403939" mask="url(#path-20-inside-2_0_1)"/>
</g>
<line id="Line 1" x1="541.601" y1="331.393" x2="551.701" y2="336.301" stroke="#403939" stroke-width="9"/>
</g>
</g>
<g id="card_A">
<g id="playing card_2">
<mask id="path-23-inside-3_0_1" fill="white">
<rect x="577.483" y="298" width="94.8415" height="144.758" rx="10" transform="rotate(19.5677 577.483 298)"/>
</mask>
<rect x="577.483" y="298" width="94.8415" height="144.758" rx="10" transform="rotate(19.5677 577.483 298)" fill="#F4F4F4" stroke="#403939" stroke-width="22" mask="url(#path-23-inside-3_0_1)"/>
</g>
<g id="diamond">
<rect id="Rectangle 4" x="0.603402" y="0.214479" width="38.7168" height="38.7168" rx="4.5" transform="matrix(0.860639 -0.509216 0.346165 0.938174 570.767 377.327)" fill="#403939" stroke="#403939"/>
</g>
<g id="A">
<g id="Rectangle 4_2">
<mask id="path-25-inside-4_0_1" fill="white">
<path d="M579.53 331.985L594.973 318.344L598.343 338.672L582.899 352.313L579.53 331.985Z"/>
</mask>
<path d="M594.973 318.344L601.719 312.386L600.247 303.507L593.502 309.465L594.973 318.344ZM581.001 340.864L596.445 327.223L593.502 309.465L578.058 323.106L581.001 340.864ZM588.228 324.302L591.597 344.63L605.089 332.714L601.719 312.386L588.228 324.302Z" fill="#403939" mask="url(#path-25-inside-4_0_1)"/>
</g>
</g>
</g>
<g id="die1">
<g id="die_sides">
<g id="left">
<mask id="path-27-inside-5_0_1" fill="white">
<path d="M90.7694 305.647L110.651 369.531L61.7867 421.816L43.4321 356.298L90.7694 305.647Z"/>
</mask>
<path d="M90.7694 305.647L110.651 369.531L61.7867 421.816L43.4321 356.298L90.7694 305.647Z" fill="#F1F1F1" stroke="#383636" stroke-width="4" mask="url(#path-27-inside-5_0_1)"/>
</g>
<g id="right">
<mask id="path-28-inside-6_0_1" fill="white">
<path d="M176.691 385.336L110.763 369.411L61.4813 422.142L128.949 436.419L176.691 385.336Z"/>
</mask>
<path d="M176.691 385.336L110.763 369.411L61.4813 422.142L128.949 436.419L176.691 385.336Z" fill="#D1D1D1" stroke="#383636" stroke-width="4" mask="url(#path-28-inside-6_0_1)"/>
</g>
<g id="top">
<mask id="path-29-inside-7_0_1" fill="white">
<path d="M157.247 321.86L177.018 385.641L110.651 369.531L90.464 305.974L157.247 321.86Z"/>
</mask>
<path d="M157.247 321.86L177.018 385.641L110.651 369.531L90.464 305.974L157.247 321.86Z" fill="#E6E5E5" stroke="#383636" stroke-width="4" mask="url(#path-29-inside-7_0_1)"/>
</g>
</g>
<g id="3">
<path id="Ellipse 2" d="M120.507 330.4C119.887 331.064 118.905 331.385 117.71 331.245C116.515 331.105 115.181 330.503 114.03 329.428C112.88 328.353 112.189 327.062 111.969 325.879C111.748 324.696 112.003 323.695 112.623 323.032C113.243 322.368 114.225 322.047 115.42 322.187C116.615 322.327 117.949 322.928 119.1 324.003C120.25 325.079 120.941 326.37 121.161 327.552C121.382 328.736 121.127 329.736 120.507 330.4Z" fill="#797979" stroke="#383636" stroke-width="2"/>
<path id="Ellipse 3" d="M138.705 347.408C138.085 348.072 137.104 348.393 135.909 348.253C134.714 348.113 133.379 347.512 132.229 346.436C131.078 345.361 130.388 344.07 130.167 342.887C129.947 341.704 130.201 340.703 130.821 340.04C131.442 339.376 132.423 339.055 133.618 339.195C134.813 339.335 136.148 339.936 137.298 341.012C138.449 342.087 139.139 343.378 139.36 344.56C139.58 345.744 139.326 346.744 138.705 347.408Z" fill="#797979" stroke="#383636" stroke-width="2"/>
<path id="Ellipse 4" d="M158.871 366.255C158.251 366.918 157.27 367.24 156.075 367.1C154.88 366.96 153.545 366.358 152.395 365.283C151.244 364.208 150.554 362.917 150.333 361.734C150.113 360.551 150.367 359.55 150.987 358.887C151.608 358.223 152.589 357.902 153.784 358.041C154.979 358.181 156.314 358.783 157.464 359.858C158.615 360.934 159.305 362.224 159.526 363.407C159.746 364.59 159.492 365.591 158.871 366.255Z" fill="#797979" stroke="#383636" stroke-width="2"/>
</g>
<g id="5">
<path id="Ellipse 5" d="M86.4726 340.878C85.2871 342.146 83.861 342.911 82.549 343.155C81.2365 343.4 80.1122 343.119 79.3616 342.418C78.611 341.716 78.2555 340.614 78.4108 339.288C78.566 337.962 79.2323 336.488 80.4179 335.219C81.6034 333.951 83.0295 333.186 84.3415 332.942C85.654 332.697 86.7783 332.977 87.5289 333.679C88.2795 334.38 88.635 335.483 88.4797 336.809C88.3245 338.135 87.6582 339.609 86.4726 340.878Z" fill="#797979" stroke="#383636" stroke-width="2"/>
<path id="Ellipse 6" d="M80.5122 364.474C79.3156 365.754 77.906 366.548 76.6329 366.832C75.3541 367.117 74.3217 366.875 73.6696 366.265C73.0174 365.656 72.7061 364.642 72.9039 363.347C73.1008 362.058 73.7977 360.598 74.9943 359.317C76.1909 358.037 77.6004 357.243 78.8736 356.959C80.1523 356.675 81.1847 356.917 81.8369 357.526C82.489 358.136 82.8003 359.149 82.6026 360.444C82.4057 361.734 81.7088 363.194 80.5122 364.474Z" fill="#797979" stroke="#383636" stroke-width="2"/>
<path id="Ellipse 8" d="M94.656 367.635C93.4704 368.904 92.0444 369.668 90.7324 369.912C89.4199 370.157 88.2955 369.877 87.5449 369.175C86.7944 368.474 86.4389 367.371 86.5941 366.045C86.7494 364.719 87.4157 363.245 88.6012 361.976C89.7868 360.708 91.2128 359.943 92.5248 359.699C93.8373 359.455 94.9616 359.735 95.7122 360.436C96.4628 361.138 96.8183 362.241 96.6631 363.567C96.5078 364.892 95.8415 366.367 94.656 367.635Z" fill="#797979" stroke="#383636" stroke-width="2"/>
<path id="Ellipse 9" d="M71.8673 385.562C70.6817 386.83 69.2557 387.595 67.9437 387.839C66.6312 388.084 65.5068 387.804 64.7563 387.102C64.0057 386.401 63.6502 385.298 63.8054 383.972C63.9607 382.646 64.627 381.172 65.8125 379.903C66.9981 378.635 68.4241 377.87 69.7361 377.626C71.0486 377.381 72.173 377.662 72.9235 378.363C73.6741 379.065 74.0296 380.167 73.8744 381.493C73.7191 382.819 73.0528 384.293 71.8673 385.562Z" fill="#797979" stroke="#383636" stroke-width="2"/>
<path id="Ellipse 7" d="M63.8946 365.036C62.709 366.305 61.283 367.069 59.971 367.313C58.6585 367.558 57.5342 367.278 56.7836 366.576C56.033 365.875 55.6775 364.772 55.8328 363.446C55.988 362.12 56.6543 360.646 57.8399 359.377C59.0254 358.109 60.4515 357.344 61.7635 357.1C63.076 356.856 64.2003 357.136 64.9509 357.837C65.7015 358.539 66.057 359.642 65.9017 360.968C65.7465 362.293 65.0802 363.768 63.8946 365.036Z" fill="#797979" stroke="#383636" stroke-width="2"/>
</g>
<g id="6">
<path id="Ellipse 10" d="M124.771 388.597C122.683 390.831 119.796 391.02 118.312 389.633C116.829 388.247 116.822 385.354 118.91 383.12C120.998 380.886 123.885 380.696 125.369 382.083C126.853 383.47 126.859 386.363 124.771 388.597Z" fill="#797979" stroke="#383636" stroke-width="2"/>
<path id="Ellipse 11" d="M110.559 403.804C108.471 406.038 105.584 406.227 104.1 404.84C102.616 403.453 102.61 400.56 104.698 398.326C106.786 396.092 109.673 395.903 111.157 397.29C112.641 398.677 112.647 401.57 110.559 403.804Z" fill="#797979" stroke="#383636" stroke-width="2"/>
<path id="Ellipse 12" d="M97.3995 417.884C95.3117 420.118 92.425 420.307 90.9411 418.921C89.4572 417.534 89.4511 414.641 91.5389 412.407C93.6268 410.173 96.5135 409.983 97.9974 411.37C99.4813 412.757 99.4874 415.65 97.3995 417.884Z" fill="#797979" stroke="#383636" stroke-width="2"/>
<path id="Ellipse 13" d="M150.615 394.813C148.528 397.047 145.641 397.237 144.157 395.85C142.673 394.463 142.667 391.57 144.755 389.336C146.843 387.102 149.729 386.913 151.213 388.3C152.697 389.686 152.703 392.579 150.615 394.813Z" fill="#797979" stroke="#383636" stroke-width="2"/>
<path id="Ellipse 14" d="M136.404 410.02C134.316 412.254 131.429 412.443 129.945 411.057C128.461 409.67 128.455 406.777 130.543 404.543C132.631 402.309 135.517 402.12 137.001 403.506C138.485 404.893 138.491 407.786 136.404 410.02Z" fill="#797979" stroke="#383636" stroke-width="2"/>
<path id="Ellipse 15" d="M123.244 424.1C121.156 426.334 118.27 426.524 116.786 425.137C115.302 423.75 115.296 420.857 117.384 418.623C119.472 416.389 122.358 416.2 123.842 417.587C125.326 418.974 125.332 421.866 123.244 424.1Z" fill="#797979" stroke="#383636" stroke-width="2"/>
</g>
</g>
</g>
</svg>
