<svg width="740" height="475" viewBox="0 0 740 475" fill="none" xmlns="http://www.w3.org/2000/svg">
<rect width="740" height="475" fill="#1E1E1E"/>
<g id="productivity_app">
<rect width="740" height="475" fill="white"/>
<g id="to_do_list">
<rect id="page" x="171.167" y="141.542" width="280" height="321.692" rx="15" transform="rotate(-18.8079 171.167 141.542)" fill="#F5EFCC" stroke="#C6C6C6" stroke-width="14"/>
<g id="bounds">
<rect id="Rectangle 11" x="196.651" y="101.599" width="33" height="58.1005" rx="6" transform="rotate(-18.8079 196.651 101.599)" fill="#817F7F"/>
<rect id="Rectangle 12" x="252.5" y="82.5775" width="34" height="58.1005" rx="5" transform="rotate(-18.8079 252.5 82.5775)" fill="#817F7F"/>
<rect id="Rectangle 13" x="308.35" y="63.5562" width="34" height="58.1005" rx="5" transform="rotate(-18.8079 308.35 63.5562)" fill="#817F7F"/>
<rect id="Rectangle 14" x="365.146" y="44.2125" width="33" height="58.1005" rx="6" transform="rotate(-18.8079 365.146 44.2125)" fill="#817F7F"/>
</g>
<g id="checkmark">
<line id="Line 5" x1="8.5" y1="-8.5" x2="40.1304" y2="-8.5" transform="matrix(0.951735 0.306921 -0.241097 0.970501 250.575 253.727)" stroke="#4B4B4B" stroke-width="17" stroke-linecap="round"/>
<line id="Line 6" x1="8.5" y1="-8.5" x2="82.6328" y2="-8.5" transform="matrix(0.224528 -0.974468 0.957099 0.289761 297.805 268.33)" stroke="#4B4B4B" stroke-width="17" stroke-linecap="round"/>
</g>
<g id="checkmark_2">
<line id="Line 5_2" x1="8.5" y1="-8.5" x2="40.1304" y2="-8.5" transform="matrix(0.951735 0.306921 -0.241097 0.970501 276.938 331.132)" stroke="#4B4B4B" stroke-width="17" stroke-linecap="round"/>
<line id="Line 6_2" x1="8.5" y1="-8.5" x2="82.6328" y2="-8.5" transform="matrix(0.224528 -0.974468 0.957099 0.289761 324.168 345.735)" stroke="#4B4B4B" stroke-width="17" stroke-linecap="round"/>
</g>
<line id="Line 7" x1="9.5" y1="-9.5" x2="96.5057" y2="-9.5" transform="matrix(0.949859 -0.312679 0.314004 0.949422 345.836 220.147)" stroke="#4B4B4B" stroke-width="19" stroke-linecap="round"/>
<line id="Line 8" x1="9.5" y1="-9.5" x2="96.5057" y2="-9.5" transform="matrix(0.949859 -0.312679 0.314004 0.949422 372.198 297.552)" stroke="#4B4B4B" stroke-width="19" stroke-linecap="round"/>
</g>
</g>
</svg>
