<svg width="740" height="475" viewBox="0 0 740 475" fill="none" xmlns="http://www.w3.org/2000/svg">
<mask id="path-1-inside-1_2_3" fill="white">
<path d="M26 51C26 48.7909 27.7909 47 30 47H97C99.2091 47 101 48.7909 101 51V90C101 92.2091 99.2091 94 97 94H30C27.7909 94 26 92.2091 26 90V51Z"/>
</mask>
<path d="M26 51C26 48.7909 27.7909 47 30 47H97C99.2091 47 101 48.7909 101 51V90C101 92.2091 99.2091 94 97 94H30C27.7909 94 26 92.2091 26 90V51Z" fill="#A5D09E"/>
<path d="M26 47H101H26ZM101 94H26H101ZM30 94C24.4772 94 20 89.5228 20 84V57C20 51.4772 24.4772 47 30 47H32C32 47 32 48.7909 32 51V90C32 92.2091 32 94 32 94H30ZM97 47C102.523 47 107 51.4772 107 57V84C107 89.5228 102.523 94 97 94H95C95 94 95 92.2091 95 90V51C95 48.7909 95 47 95 47H97Z" fill="#408D47" mask="url(#path-1-inside-1_2_3)"/>
<path d="M61.5887 83V81.4118H58.195V73.0338H61.4716V77.5206C61.4716 77.6529 61.5366 77.7191 61.6667 77.7191H65.1383C65.2683 77.7191 65.3333 77.6529 65.3333 77.5206L65.3723 70.7706C65.3723 70.6382 65.3073 70.5721 65.1773 70.5721H61.2376C60.1974 70.5721 59.3913 70.2412 58.8191 69.5794C58.273 68.9176 58 68.0176 58 66.8794V61.2809C58 60.1956 58.3381 59.3088 59.0142 58.6206C59.7163 57.9324 60.6005 57.5882 61.6667 57.5882H61.7837V56H65.4113V57.5882H68.805V64.7353H65.5284V61.4794C65.5284 61.3471 65.4634 61.2809 65.3333 61.2809H61.8617C61.7317 61.2809 61.6667 61.3471 61.6667 61.4794V66.6809C61.6667 66.8132 61.7317 66.8794 61.8617 66.8794H65.3333C66.4775 66.8794 67.3747 67.2235 68.0248 67.9118C68.6749 68.5735 69 69.4603 69 70.5721V77.7191C69 78.7779 68.6489 79.6647 67.9468 80.3794C67.2707 81.0676 66.3995 81.4118 65.3333 81.4118H65.2163V83H61.5887Z" fill="#408D47"/>
<mask id="path-4-inside-2_2_3" fill="white">
<path d="M26 112C26 109.791 27.7909 108 30 108H97C99.2091 108 101 109.791 101 112V151C101 153.209 99.2091 155 97 155H30C27.7909 155 26 153.209 26 151V112Z"/>
</mask>
<path d="M26 112C26 109.791 27.7909 108 30 108H97C99.2091 108 101 109.791 101 112V151C101 153.209 99.2091 155 97 155H30C27.7909 155 26 153.209 26 151V112Z" fill="#A5D09E"/>
<path d="M26 108H101H26ZM101 155H26H101ZM30 155C24.4772 155 20 150.523 20 145V118C20 112.477 24.4772 108 30 108H32C32 108 32 109.791 32 112V151C32 153.209 32 155 32 155H30ZM97 108C102.523 108 107 112.477 107 118V145C107 150.523 102.523 155 97 155H95C95 155 95 153.209 95 151V112C95 109.791 95 108 95 108H97Z" fill="#408D47" mask="url(#path-4-inside-2_2_3)"/>
<path d="M61.5887 144V142.412H58.195V134.034H61.4716V138.521C61.4716 138.653 61.5366 138.719 61.6667 138.719H65.1383C65.2683 138.719 65.3333 138.653 65.3333 138.521L65.3723 131.771C65.3723 131.638 65.3073 131.572 65.1773 131.572H61.2376C60.1974 131.572 59.3913 131.241 58.8191 130.579C58.273 129.918 58 129.018 58 127.879V122.281C58 121.196 58.3381 120.309 59.0142 119.621C59.7163 118.932 60.6005 118.588 61.6667 118.588H61.7837V117H65.4113V118.588H68.805V125.735H65.5284V122.479C65.5284 122.347 65.4634 122.281 65.3333 122.281H61.8617C61.7317 122.281 61.6667 122.347 61.6667 122.479V127.681C61.6667 127.813 61.7317 127.879 61.8617 127.879H65.3333C66.4775 127.879 67.3747 128.224 68.0248 128.912C68.6749 129.574 69 130.46 69 131.572V138.719C69 139.778 68.6489 140.665 67.9468 141.379C67.2707 142.068 66.3995 142.412 65.3333 142.412H65.2163V144H61.5887Z" fill="#408D47"/>
<mask id="path-7-inside-3_2_3" fill="white">
<path d="M26 173C26 170.791 27.7909 169 30 169H97C99.2091 169 101 170.791 101 173V212C101 214.209 99.2091 216 97 216H30C27.7909 216 26 214.209 26 212V173Z"/>
</mask>
<path d="M26 173C26 170.791 27.7909 169 30 169H97C99.2091 169 101 170.791 101 173V212C101 214.209 99.2091 216 97 216H30C27.7909 216 26 214.209 26 212V173Z" fill="#A5D09E"/>
<path d="M26 169H101H26ZM101 216H26H101ZM30 216C24.4772 216 20 211.523 20 206V179C20 173.477 24.4772 169 30 169H32C32 169 32 170.791 32 173V212C32 214.209 32 216 32 216H30ZM97 169C102.523 169 107 173.477 107 179V206C107 211.523 102.523 216 97 216H95C95 216 95 214.209 95 212V173C95 170.791 95 169 95 169H97Z" fill="#408D47" mask="url(#path-7-inside-3_2_3)"/>
<path d="M61.5887 205V203.412H58.195V195.034H61.4716V199.521C61.4716 199.653 61.5366 199.719 61.6667 199.719H65.1383C65.2683 199.719 65.3333 199.653 65.3333 199.521L65.3723 192.771C65.3723 192.638 65.3073 192.572 65.1773 192.572H61.2376C60.1974 192.572 59.3913 192.241 58.8191 191.579C58.273 190.918 58 190.018 58 188.879V183.281C58 182.196 58.3381 181.309 59.0142 180.621C59.7163 179.932 60.6005 179.588 61.6667 179.588H61.7837V178H65.4113V179.588H68.805V186.735H65.5284V183.479C65.5284 183.347 65.4634 183.281 65.3333 183.281H61.8617C61.7317 183.281 61.6667 183.347 61.6667 183.479V188.681C61.6667 188.813 61.7317 188.879 61.8617 188.879H65.3333C66.4775 188.879 67.3747 189.224 68.0248 189.912C68.6749 190.574 69 191.46 69 192.572V199.719C69 200.778 68.6489 201.665 67.9468 202.379C67.2707 203.068 66.3995 203.412 65.3333 203.412H65.2163V205H61.5887Z" fill="#408D47"/>
<mask id="path-10-inside-4_2_3" fill="white">
<path d="M26 234C26 231.791 27.7909 230 30 230H97C99.2091 230 101 231.791 101 234V273C101 275.209 99.2091 277 97 277H30C27.7909 277 26 275.209 26 273V234Z"/>
</mask>
<path d="M26 234C26 231.791 27.7909 230 30 230H97C99.2091 230 101 231.791 101 234V273C101 275.209 99.2091 277 97 277H30C27.7909 277 26 275.209 26 273V234Z" fill="#A5D09E"/>
<path d="M26 230H101H26ZM101 277H26H101ZM30 277C24.4772 277 20 272.523 20 267V240C20 234.477 24.4772 230 30 230H32C32 230 32 231.791 32 234V273C32 275.209 32 277 32 277H30ZM97 230C102.523 230 107 234.477 107 240V267C107 272.523 102.523 277 97 277H95C95 277 95 275.209 95 273V234C95 231.791 95 230 95 230H97Z" fill="#408D47" mask="url(#path-10-inside-4_2_3)"/>
<path d="M61.5887 266V264.412H58.195V256.034H61.4716V260.521C61.4716 260.653 61.5366 260.719 61.6667 260.719H65.1383C65.2683 260.719 65.3333 260.653 65.3333 260.521L65.3723 253.771C65.3723 253.638 65.3073 253.572 65.1773 253.572H61.2376C60.1974 253.572 59.3913 253.241 58.8191 252.579C58.273 251.918 58 251.018 58 249.879V244.281C58 243.196 58.3381 242.309 59.0142 241.621C59.7163 240.932 60.6005 240.588 61.6667 240.588H61.7837V239H65.4113V240.588H68.805V247.735H65.5284V244.479C65.5284 244.347 65.4634 244.281 65.3333 244.281H61.8617C61.7317 244.281 61.6667 244.347 61.6667 244.479V249.681C61.6667 249.813 61.7317 249.879 61.8617 249.879H65.3333C66.4775 249.879 67.3747 250.224 68.0248 250.912C68.6749 251.574 69 252.46 69 253.572V260.719C69 261.778 68.6489 262.665 67.9468 263.379C67.2707 264.068 66.3995 264.412 65.3333 264.412H65.2163V266H61.5887Z" fill="#408D47"/>
<mask id="path-13-inside-5_2_3" fill="white">
<path d="M26 295C26 292.791 27.7909 291 30 291H97C99.2091 291 101 292.791 101 295V334C101 336.209 99.2091 338 97 338H30C27.7909 338 26 336.209 26 334V295Z"/>
</mask>
<path d="M26 295C26 292.791 27.7909 291 30 291H97C99.2091 291 101 292.791 101 295V334C101 336.209 99.2091 338 97 338H30C27.7909 338 26 336.209 26 334V295Z" fill="#A5D09E"/>
<path d="M26 291H101H26ZM101 338H26H101ZM30 338C24.4772 338 20 333.523 20 328V301C20 295.477 24.4772 291 30 291H32C32 291 32 292.791 32 295V334C32 336.209 32 338 32 338H30ZM97 291C102.523 291 107 295.477 107 301V328C107 333.523 102.523 338 97 338H95C95 338 95 336.209 95 334V295C95 292.791 95 291 95 291H97Z" fill="#408D47" mask="url(#path-13-inside-5_2_3)"/>
<path d="M61.5887 327V325.412H58.195V317.034H61.4716V321.521C61.4716 321.653 61.5366 321.719 61.6667 321.719H65.1383C65.2683 321.719 65.3333 321.653 65.3333 321.521L65.3723 314.771C65.3723 314.638 65.3073 314.572 65.1773 314.572H61.2376C60.1974 314.572 59.3913 314.241 58.8191 313.579C58.273 312.918 58 312.018 58 310.879V305.281C58 304.196 58.3381 303.309 59.0142 302.621C59.7163 301.932 60.6005 301.588 61.6667 301.588H61.7837V300H65.4113V301.588H68.805V308.735H65.5284V305.479C65.5284 305.347 65.4634 305.281 65.3333 305.281H61.8617C61.7317 305.281 61.6667 305.347 61.6667 305.479V310.681C61.6667 310.813 61.7317 310.879 61.8617 310.879H65.3333C66.4775 310.879 67.3747 311.224 68.0248 311.912C68.6749 312.574 69 313.46 69 314.572V321.719C69 322.778 68.6489 323.665 67.9468 324.379C67.2707 325.068 66.3995 325.412 65.3333 325.412H65.2163V327H61.5887Z" fill="#408D47"/>
<mask id="path-16-inside-6_2_3" fill="white">
<path d="M26 356C26 353.791 27.7909 352 30 352H97C99.2091 352 101 353.791 101 356V395C101 397.209 99.2091 399 97 399H30C27.7909 399 26 397.209 26 395V356Z"/>
</mask>
<path d="M26 356C26 353.791 27.7909 352 30 352H97C99.2091 352 101 353.791 101 356V395C101 397.209 99.2091 399 97 399H30C27.7909 399 26 397.209 26 395V356Z" fill="#A5D09E"/>
<path d="M26 352H101H26ZM101 399H26H101ZM30 399C24.4772 399 20 394.523 20 389V362C20 356.477 24.4772 352 30 352H32C32 352 32 353.791 32 356V395C32 397.209 32 399 32 399H30ZM97 352C102.523 352 107 356.477 107 362V389C107 394.523 102.523 399 97 399H95C95 399 95 397.209 95 395V356C95 353.791 95 352 95 352H97Z" fill="#408D47" mask="url(#path-16-inside-6_2_3)"/>
<path d="M61.5887 388V386.412H58.195V378.034H61.4716V382.521C61.4716 382.653 61.5366 382.719 61.6667 382.719H65.1383C65.2683 382.719 65.3333 382.653 65.3333 382.521L65.3723 375.771C65.3723 375.638 65.3073 375.572 65.1773 375.572H61.2376C60.1974 375.572 59.3913 375.241 58.8191 374.579C58.273 373.918 58 373.018 58 371.879V366.281C58 365.196 58.3381 364.309 59.0142 363.621C59.7163 362.932 60.6005 362.588 61.6667 362.588H61.7837V361H65.4113V362.588H68.805V369.735H65.5284V366.479C65.5284 366.347 65.4634 366.281 65.3333 366.281H61.8617C61.7317 366.281 61.6667 366.347 61.6667 366.479V371.681C61.6667 371.813 61.7317 371.879 61.8617 371.879H65.3333C66.4775 371.879 67.3747 372.224 68.0248 372.912C68.6749 373.574 69 374.46 69 375.572V382.719C69 383.778 68.6489 384.665 67.9468 385.379C67.2707 386.068 66.3995 386.412 65.3333 386.412H65.2163V388H61.5887Z" fill="#408D47"/>
<mask id="path-19-inside-7_2_3" fill="white">
<path d="M26 417C26 414.791 27.7909 413 30 413H97C99.2091 413 101 414.791 101 417V456C101 458.209 99.2091 460 97 460H30C27.7909 460 26 458.209 26 456V417Z"/>
</mask>
<path d="M26 417C26 414.791 27.7909 413 30 413H97C99.2091 413 101 414.791 101 417V456C101 458.209 99.2091 460 97 460H30C27.7909 460 26 458.209 26 456V417Z" fill="#A5D09E"/>
<path d="M26 413H101H26ZM101 460H26H101ZM30 460C24.4772 460 20 455.523 20 450V423C20 417.477 24.4772 413 30 413H32C32 413 32 414.791 32 417V456C32 458.209 32 460 32 460H30ZM97 413C102.523 413 107 417.477 107 423V450C107 455.523 102.523 460 97 460H95C95 460 95 458.209 95 456V417C95 414.791 95 413 95 413H97Z" fill="#408D47" mask="url(#path-19-inside-7_2_3)"/>
<path d="M61.5887 449V447.412H58.195V439.034H61.4716V443.521C61.4716 443.653 61.5366 443.719 61.6667 443.719H65.1383C65.2683 443.719 65.3333 443.653 65.3333 443.521L65.3723 436.771C65.3723 436.638 65.3073 436.572 65.1773 436.572H61.2376C60.1974 436.572 59.3913 436.241 58.8191 435.579C58.273 434.918 58 434.018 58 432.879V427.281C58 426.196 58.3381 425.309 59.0142 424.621C59.7163 423.932 60.6005 423.588 61.6667 423.588H61.7837V422H65.4113V423.588H68.805V430.735H65.5284V427.479C65.5284 427.347 65.4634 427.281 65.3333 427.281H61.8617C61.7317 427.281 61.6667 427.347 61.6667 427.479V432.681C61.6667 432.813 61.7317 432.879 61.8617 432.879H65.3333C66.4775 432.879 67.3747 433.224 68.0248 433.912C68.6749 434.574 69 435.46 69 436.572V443.719C69 444.778 68.6489 445.665 67.9468 446.379C67.2707 447.068 66.3995 447.412 65.3333 447.412H65.2163V449H61.5887Z" fill="#408D47"/>
<mask id="path-22-inside-8_2_3" fill="white">
<path d="M128 295C128 292.791 129.791 291 132 291H199C201.209 291 203 292.791 203 295V334C203 336.209 201.209 338 199 338H132C129.791 338 128 336.209 128 334V295Z"/>
</mask>
<path d="M128 295C128 292.791 129.791 291 132 291H199C201.209 291 203 292.791 203 295V334C203 336.209 201.209 338 199 338H132C129.791 338 128 336.209 128 334V295Z" fill="#A5D09E"/>
<path d="M128 291H203H128ZM203 338H128H203ZM132 338C126.477 338 122 333.523 122 328V301C122 295.477 126.477 291 132 291H134C134 291 134 292.791 134 295V334C134 336.209 134 338 134 338H132ZM199 291C204.523 291 209 295.477 209 301V328C209 333.523 204.523 338 199 338H197C197 338 197 336.209 197 334V295C197 292.791 197 291 197 291H199Z" fill="#408D47" mask="url(#path-22-inside-8_2_3)"/>
<path d="M163.589 327V325.412H160.195V317.034H163.472V321.521C163.472 321.653 163.537 321.719 163.667 321.719H167.138C167.268 321.719 167.333 321.653 167.333 321.521L167.372 314.771C167.372 314.638 167.307 314.572 167.177 314.572H163.238C162.197 314.572 161.391 314.241 160.819 313.579C160.273 312.918 160 312.018 160 310.879V305.281C160 304.196 160.338 303.309 161.014 302.621C161.716 301.932 162.6 301.588 163.667 301.588H163.784V300H167.411V301.588H170.805V308.735H167.528V305.479C167.528 305.347 167.463 305.281 167.333 305.281H163.862C163.732 305.281 163.667 305.347 163.667 305.479V310.681C163.667 310.813 163.732 310.879 163.862 310.879H167.333C168.478 310.879 169.375 311.224 170.025 311.912C170.675 312.574 171 313.46 171 314.572V321.719C171 322.778 170.649 323.665 169.947 324.379C169.271 325.068 168.4 325.412 167.333 325.412H167.216V327H163.589Z" fill="#408D47"/>
<mask id="path-25-inside-9_2_3" fill="white">
<path d="M128 356C128 353.791 129.791 352 132 352H199C201.209 352 203 353.791 203 356V395C203 397.209 201.209 399 199 399H132C129.791 399 128 397.209 128 395V356Z"/>
</mask>
<path d="M128 356C128 353.791 129.791 352 132 352H199C201.209 352 203 353.791 203 356V395C203 397.209 201.209 399 199 399H132C129.791 399 128 397.209 128 395V356Z" fill="#A5D09E"/>
<path d="M128 352H203H128ZM203 399H128H203ZM132 399C126.477 399 122 394.523 122 389V362C122 356.477 126.477 352 132 352H134C134 352 134 353.791 134 356V395C134 397.209 134 399 134 399H132ZM199 352C204.523 352 209 356.477 209 362V389C209 394.523 204.523 399 199 399H197C197 399 197 397.209 197 395V356C197 353.791 197 352 197 352H199Z" fill="#408D47" mask="url(#path-25-inside-9_2_3)"/>
<path d="M163.589 388V386.412H160.195V378.034H163.472V382.521C163.472 382.653 163.537 382.719 163.667 382.719H167.138C167.268 382.719 167.333 382.653 167.333 382.521L167.372 375.771C167.372 375.638 167.307 375.572 167.177 375.572H163.238C162.197 375.572 161.391 375.241 160.819 374.579C160.273 373.918 160 373.018 160 371.879V366.281C160 365.196 160.338 364.309 161.014 363.621C161.716 362.932 162.6 362.588 163.667 362.588H163.784V361H167.411V362.588H170.805V369.735H167.528V366.479C167.528 366.347 167.463 366.281 167.333 366.281H163.862C163.732 366.281 163.667 366.347 163.667 366.479V371.681C163.667 371.813 163.732 371.879 163.862 371.879H167.333C168.478 371.879 169.375 372.224 170.025 372.912C170.675 373.574 171 374.46 171 375.572V382.719C171 383.778 170.649 384.665 169.947 385.379C169.271 386.068 168.4 386.412 167.333 386.412H167.216V388H163.589Z" fill="#408D47"/>
<mask id="path-28-inside-10_2_3" fill="white">
<path d="M128 417C128 414.791 129.791 413 132 413H199C201.209 413 203 414.791 203 417V456C203 458.209 201.209 460 199 460H132C129.791 460 128 458.209 128 456V417Z"/>
</mask>
<path d="M128 417C128 414.791 129.791 413 132 413H199C201.209 413 203 414.791 203 417V456C203 458.209 201.209 460 199 460H132C129.791 460 128 458.209 128 456V417Z" fill="#A5D09E"/>
<path d="M128 413H203H128ZM203 460H128H203ZM132 460C126.477 460 122 455.523 122 450V423C122 417.477 126.477 413 132 413H134C134 413 134 414.791 134 417V456C134 458.209 134 460 134 460H132ZM199 413C204.523 413 209 417.477 209 423V450C209 455.523 204.523 460 199 460H197C197 460 197 458.209 197 456V417C197 414.791 197 413 197 413H199Z" fill="#408D47" mask="url(#path-28-inside-10_2_3)"/>
<path d="M163.589 449V447.412H160.195V439.034H163.472V443.521C163.472 443.653 163.537 443.719 163.667 443.719H167.138C167.268 443.719 167.333 443.653 167.333 443.521L167.372 436.771C167.372 436.638 167.307 436.572 167.177 436.572H163.238C162.197 436.572 161.391 436.241 160.819 435.579C160.273 434.918 160 434.018 160 432.879V427.281C160 426.196 160.338 425.309 161.014 424.621C161.716 423.932 162.6 423.588 163.667 423.588H163.784V422H167.411V423.588H170.805V430.735H167.528V427.479C167.528 427.347 167.463 427.281 167.333 427.281H163.862C163.732 427.281 163.667 427.347 163.667 427.479V432.681C163.667 432.813 163.732 432.879 163.862 432.879H167.333C168.478 432.879 169.375 433.224 170.025 433.912C170.675 434.574 171 435.46 171 436.572V443.719C171 444.778 170.649 445.665 169.947 446.379C169.271 447.068 168.4 447.412 167.333 447.412H167.216V449H163.589Z" fill="#408D47"/>
<mask id="path-31-inside-11_2_3" fill="white">
<path d="M230 356C230 353.791 231.791 352 234 352H301C303.209 352 305 353.791 305 356V395C305 397.209 303.209 399 301 399H234C231.791 399 230 397.209 230 395V356Z"/>
</mask>
<path d="M230 356C230 353.791 231.791 352 234 352H301C303.209 352 305 353.791 305 356V395C305 397.209 303.209 399 301 399H234C231.791 399 230 397.209 230 395V356Z" fill="#A5D09E"/>
<path d="M230 352H305H230ZM305 399H230H305ZM234 399C228.477 399 224 394.523 224 389V362C224 356.477 228.477 352 234 352H236C236 352 236 353.791 236 356V395C236 397.209 236 399 236 399H234ZM301 352C306.523 352 311 356.477 311 362V389C311 394.523 306.523 399 301 399H299C299 399 299 397.209 299 395V356C299 353.791 299 352 299 352H301Z" fill="#408D47" mask="url(#path-31-inside-11_2_3)"/>
<path d="M265.589 388V386.412H262.195V378.034H265.472V382.521C265.472 382.653 265.537 382.719 265.667 382.719H269.138C269.268 382.719 269.333 382.653 269.333 382.521L269.372 375.771C269.372 375.638 269.307 375.572 269.177 375.572H265.238C264.197 375.572 263.391 375.241 262.819 374.579C262.273 373.918 262 373.018 262 371.879V366.281C262 365.196 262.338 364.309 263.014 363.621C263.716 362.932 264.6 362.588 265.667 362.588H265.784V361H269.411V362.588H272.805V369.735H269.528V366.479C269.528 366.347 269.463 366.281 269.333 366.281H265.862C265.732 366.281 265.667 366.347 265.667 366.479V371.681C265.667 371.813 265.732 371.879 265.862 371.879H269.333C270.478 371.879 271.375 372.224 272.025 372.912C272.675 373.574 273 374.46 273 375.572V382.719C273 383.778 272.649 384.665 271.947 385.379C271.271 386.068 270.4 386.412 269.333 386.412H269.216V388H265.589Z" fill="#408D47"/>
<mask id="path-34-inside-12_2_3" fill="white">
<path d="M230 417C230 414.791 231.791 413 234 413H301C303.209 413 305 414.791 305 417V456C305 458.209 303.209 460 301 460H234C231.791 460 230 458.209 230 456V417Z"/>
</mask>
<path d="M230 417C230 414.791 231.791 413 234 413H301C303.209 413 305 414.791 305 417V456C305 458.209 303.209 460 301 460H234C231.791 460 230 458.209 230 456V417Z" fill="#A5D09E"/>
<path d="M230 413H305H230ZM305 460H230H305ZM234 460C228.477 460 224 455.523 224 450V423C224 417.477 228.477 413 234 413H236C236 413 236 414.791 236 417V456C236 458.209 236 460 236 460H234ZM301 413C306.523 413 311 417.477 311 423V450C311 455.523 306.523 460 301 460H299C299 460 299 458.209 299 456V417C299 414.791 299 413 299 413H301Z" fill="#408D47" mask="url(#path-34-inside-12_2_3)"/>
<path d="M265.589 449V447.412H262.195V439.034H265.472V443.521C265.472 443.653 265.537 443.719 265.667 443.719H269.138C269.268 443.719 269.333 443.653 269.333 443.521L269.372 436.771C269.372 436.638 269.307 436.572 269.177 436.572H265.238C264.197 436.572 263.391 436.241 262.819 435.579C262.273 434.918 262 434.018 262 432.879V427.281C262 426.196 262.338 425.309 263.014 424.621C263.716 423.932 264.6 423.588 265.667 423.588H265.784V422H269.411V423.588H272.805V430.735H269.528V427.479C269.528 427.347 269.463 427.281 269.333 427.281H265.862C265.732 427.281 265.667 427.347 265.667 427.479V432.681C265.667 432.813 265.732 432.879 265.862 432.879H269.333C270.478 432.879 271.375 433.224 272.025 433.912C272.675 434.574 273 435.46 273 436.572V443.719C273 444.778 272.649 445.665 271.947 446.379C271.271 447.068 270.4 447.412 269.333 447.412H269.216V449H265.589Z" fill="#408D47"/>
<mask id="path-37-inside-13_2_3" fill="white">
<path d="M332 295C332 292.791 333.791 291 336 291H403C405.209 291 407 292.791 407 295V334C407 336.209 405.209 338 403 338H336C333.791 338 332 336.209 332 334V295Z"/>
</mask>
<path d="M332 295C332 292.791 333.791 291 336 291H403C405.209 291 407 292.791 407 295V334C407 336.209 405.209 338 403 338H336C333.791 338 332 336.209 332 334V295Z" fill="#A5D09E"/>
<path d="M332 291H407H332ZM407 338H332H407ZM336 338C330.477 338 326 333.523 326 328V301C326 295.477 330.477 291 336 291H338C338 291 338 292.791 338 295V334C338 336.209 338 338 338 338H336ZM403 291C408.523 291 413 295.477 413 301V328C413 333.523 408.523 338 403 338H401C401 338 401 336.209 401 334V295C401 292.791 401 291 401 291H403Z" fill="#408D47" mask="url(#path-37-inside-13_2_3)"/>
<path d="M367.589 327V325.412H364.195V317.034H367.472V321.521C367.472 321.653 367.537 321.719 367.667 321.719H371.138C371.268 321.719 371.333 321.653 371.333 321.521L371.372 314.771C371.372 314.638 371.307 314.572 371.177 314.572H367.238C366.197 314.572 365.391 314.241 364.819 313.579C364.273 312.918 364 312.018 364 310.879V305.281C364 304.196 364.338 303.309 365.014 302.621C365.716 301.932 366.6 301.588 367.667 301.588H367.784V300H371.411V301.588H374.805V308.735H371.528V305.479C371.528 305.347 371.463 305.281 371.333 305.281H367.862C367.732 305.281 367.667 305.347 367.667 305.479V310.681C367.667 310.813 367.732 310.879 367.862 310.879H371.333C372.478 310.879 373.375 311.224 374.025 311.912C374.675 312.574 375 313.46 375 314.572V321.719C375 322.778 374.649 323.665 373.947 324.379C373.271 325.068 372.4 325.412 371.333 325.412H371.216V327H367.589Z" fill="#408D47"/>
<mask id="path-40-inside-14_2_3" fill="white">
<path d="M332 356C332 353.791 333.791 352 336 352H403C405.209 352 407 353.791 407 356V395C407 397.209 405.209 399 403 399H336C333.791 399 332 397.209 332 395V356Z"/>
</mask>
<path d="M332 356C332 353.791 333.791 352 336 352H403C405.209 352 407 353.791 407 356V395C407 397.209 405.209 399 403 399H336C333.791 399 332 397.209 332 395V356Z" fill="#A5D09E"/>
<path d="M332 352H407H332ZM407 399H332H407ZM336 399C330.477 399 326 394.523 326 389V362C326 356.477 330.477 352 336 352H338C338 352 338 353.791 338 356V395C338 397.209 338 399 338 399H336ZM403 352C408.523 352 413 356.477 413 362V389C413 394.523 408.523 399 403 399H401C401 399 401 397.209 401 395V356C401 353.791 401 352 401 352H403Z" fill="#408D47" mask="url(#path-40-inside-14_2_3)"/>
<path d="M367.589 388V386.412H364.195V378.034H367.472V382.521C367.472 382.653 367.537 382.719 367.667 382.719H371.138C371.268 382.719 371.333 382.653 371.333 382.521L371.372 375.771C371.372 375.638 371.307 375.572 371.177 375.572H367.238C366.197 375.572 365.391 375.241 364.819 374.579C364.273 373.918 364 373.018 364 371.879V366.281C364 365.196 364.338 364.309 365.014 363.621C365.716 362.932 366.6 362.588 367.667 362.588H367.784V361H371.411V362.588H374.805V369.735H371.528V366.479C371.528 366.347 371.463 366.281 371.333 366.281H367.862C367.732 366.281 367.667 366.347 367.667 366.479V371.681C367.667 371.813 367.732 371.879 367.862 371.879H371.333C372.478 371.879 373.375 372.224 374.025 372.912C374.675 373.574 375 374.46 375 375.572V382.719C375 383.778 374.649 384.665 373.947 385.379C373.271 386.068 372.4 386.412 371.333 386.412H371.216V388H367.589Z" fill="#408D47"/>
<mask id="path-43-inside-15_2_3" fill="white">
<path d="M332 417C332 414.791 333.791 413 336 413H403C405.209 413 407 414.791 407 417V456C407 458.209 405.209 460 403 460H336C333.791 460 332 458.209 332 456V417Z"/>
</mask>
<path d="M332 417C332 414.791 333.791 413 336 413H403C405.209 413 407 414.791 407 417V456C407 458.209 405.209 460 403 460H336C333.791 460 332 458.209 332 456V417Z" fill="#A5D09E"/>
<path d="M332 413H407H332ZM407 460H332H407ZM336 460C330.477 460 326 455.523 326 450V423C326 417.477 330.477 413 336 413H338C338 413 338 414.791 338 417V456C338 458.209 338 460 338 460H336ZM403 413C408.523 413 413 417.477 413 423V450C413 455.523 408.523 460 403 460H401C401 460 401 458.209 401 456V417C401 414.791 401 413 401 413H403Z" fill="#408D47" mask="url(#path-43-inside-15_2_3)"/>
<path d="M367.589 449V447.412H364.195V439.034H367.472V443.521C367.472 443.653 367.537 443.719 367.667 443.719H371.138C371.268 443.719 371.333 443.653 371.333 443.521L371.372 436.771C371.372 436.638 371.307 436.572 371.177 436.572H367.238C366.197 436.572 365.391 436.241 364.819 435.579C364.273 434.918 364 434.018 364 432.879V427.281C364 426.196 364.338 425.309 365.014 424.621C365.716 423.932 366.6 423.588 367.667 423.588H367.784V422H371.411V423.588H374.805V430.735H371.528V427.479C371.528 427.347 371.463 427.281 371.333 427.281H367.862C367.732 427.281 367.667 427.347 367.667 427.479V432.681C367.667 432.813 367.732 432.879 367.862 432.879H371.333C372.478 432.879 373.375 433.224 374.025 433.912C374.675 434.574 375 435.46 375 436.572V443.719C375 444.778 374.649 445.665 373.947 446.379C373.271 447.068 372.4 447.412 371.333 447.412H371.216V449H367.589Z" fill="#408D47"/>
<mask id="path-46-inside-16_2_3" fill="white">
<path d="M434 234C434 231.791 435.791 230 438 230H505C507.209 230 509 231.791 509 234V273C509 275.209 507.209 277 505 277H438C435.791 277 434 275.209 434 273V234Z"/>
</mask>
<path d="M434 234C434 231.791 435.791 230 438 230H505C507.209 230 509 231.791 509 234V273C509 275.209 507.209 277 505 277H438C435.791 277 434 275.209 434 273V234Z" fill="#A5D09E"/>
<path d="M434 230H509H434ZM509 277H434H509ZM438 277C432.477 277 428 272.523 428 267V240C428 234.477 432.477 230 438 230H440C440 230 440 231.791 440 234V273C440 275.209 440 277 440 277H438ZM505 230C510.523 230 515 234.477 515 240V267C515 272.523 510.523 277 505 277H503C503 277 503 275.209 503 273V234C503 231.791 503 230 503 230H505Z" fill="#408D47" mask="url(#path-46-inside-16_2_3)"/>
<path d="M469.589 266V264.412H466.195V256.034H469.472V260.521C469.472 260.653 469.537 260.719 469.667 260.719H473.138C473.268 260.719 473.333 260.653 473.333 260.521L473.372 253.771C473.372 253.638 473.307 253.572 473.177 253.572H469.238C468.197 253.572 467.391 253.241 466.819 252.579C466.273 251.918 466 251.018 466 249.879V244.281C466 243.196 466.338 242.309 467.014 241.621C467.716 240.932 468.6 240.588 469.667 240.588H469.784V239H473.411V240.588H476.805V247.735H473.528V244.479C473.528 244.347 473.463 244.281 473.333 244.281H469.862C469.732 244.281 469.667 244.347 469.667 244.479V249.681C469.667 249.813 469.732 249.879 469.862 249.879H473.333C474.478 249.879 475.375 250.224 476.025 250.912C476.675 251.574 477 252.46 477 253.572V260.719C477 261.778 476.649 262.665 475.947 263.379C475.271 264.068 474.4 264.412 473.333 264.412H473.216V266H469.589Z" fill="#408D47"/>
<mask id="path-49-inside-17_2_3" fill="white">
<path d="M434 295C434 292.791 435.791 291 438 291H505C507.209 291 509 292.791 509 295V334C509 336.209 507.209 338 505 338H438C435.791 338 434 336.209 434 334V295Z"/>
</mask>
<path d="M434 295C434 292.791 435.791 291 438 291H505C507.209 291 509 292.791 509 295V334C509 336.209 507.209 338 505 338H438C435.791 338 434 336.209 434 334V295Z" fill="#A5D09E"/>
<path d="M434 291H509H434ZM509 338H434H509ZM438 338C432.477 338 428 333.523 428 328V301C428 295.477 432.477 291 438 291H440C440 291 440 292.791 440 295V334C440 336.209 440 338 440 338H438ZM505 291C510.523 291 515 295.477 515 301V328C515 333.523 510.523 338 505 338H503C503 338 503 336.209 503 334V295C503 292.791 503 291 503 291H505Z" fill="#408D47" mask="url(#path-49-inside-17_2_3)"/>
<path d="M469.589 327V325.412H466.195V317.034H469.472V321.521C469.472 321.653 469.537 321.719 469.667 321.719H473.138C473.268 321.719 473.333 321.653 473.333 321.521L473.372 314.771C473.372 314.638 473.307 314.572 473.177 314.572H469.238C468.197 314.572 467.391 314.241 466.819 313.579C466.273 312.918 466 312.018 466 310.879V305.281C466 304.196 466.338 303.309 467.014 302.621C467.716 301.932 468.6 301.588 469.667 301.588H469.784V300H473.411V301.588H476.805V308.735H473.528V305.479C473.528 305.347 473.463 305.281 473.333 305.281H469.862C469.732 305.281 469.667 305.347 469.667 305.479V310.681C469.667 310.813 469.732 310.879 469.862 310.879H473.333C474.478 310.879 475.375 311.224 476.025 311.912C476.675 312.574 477 313.46 477 314.572V321.719C477 322.778 476.649 323.665 475.947 324.379C475.271 325.068 474.4 325.412 473.333 325.412H473.216V327H469.589Z" fill="#408D47"/>
<mask id="path-52-inside-18_2_3" fill="white">
<path d="M434 356C434 353.791 435.791 352 438 352H505C507.209 352 509 353.791 509 356V395C509 397.209 507.209 399 505 399H438C435.791 399 434 397.209 434 395V356Z"/>
</mask>
<path d="M434 356C434 353.791 435.791 352 438 352H505C507.209 352 509 353.791 509 356V395C509 397.209 507.209 399 505 399H438C435.791 399 434 397.209 434 395V356Z" fill="#A5D09E"/>
<path d="M434 352H509H434ZM509 399H434H509ZM438 399C432.477 399 428 394.523 428 389V362C428 356.477 432.477 352 438 352H440C440 352 440 353.791 440 356V395C440 397.209 440 399 440 399H438ZM505 352C510.523 352 515 356.477 515 362V389C515 394.523 510.523 399 505 399H503C503 399 503 397.209 503 395V356C503 353.791 503 352 503 352H505Z" fill="#408D47" mask="url(#path-52-inside-18_2_3)"/>
<path d="M469.589 388V386.412H466.195V378.034H469.472V382.521C469.472 382.653 469.537 382.719 469.667 382.719H473.138C473.268 382.719 473.333 382.653 473.333 382.521L473.372 375.771C473.372 375.638 473.307 375.572 473.177 375.572H469.238C468.197 375.572 467.391 375.241 466.819 374.579C466.273 373.918 466 373.018 466 371.879V366.281C466 365.196 466.338 364.309 467.014 363.621C467.716 362.932 468.6 362.588 469.667 362.588H469.784V361H473.411V362.588H476.805V369.735H473.528V366.479C473.528 366.347 473.463 366.281 473.333 366.281H469.862C469.732 366.281 469.667 366.347 469.667 366.479V371.681C469.667 371.813 469.732 371.879 469.862 371.879H473.333C474.478 371.879 475.375 372.224 476.025 372.912C476.675 373.574 477 374.46 477 375.572V382.719C477 383.778 476.649 384.665 475.947 385.379C475.271 386.068 474.4 386.412 473.333 386.412H473.216V388H469.589Z" fill="#408D47"/>
<mask id="path-55-inside-19_2_3" fill="white">
<path d="M434 417C434 414.791 435.791 413 438 413H505C507.209 413 509 414.791 509 417V456C509 458.209 507.209 460 505 460H438C435.791 460 434 458.209 434 456V417Z"/>
</mask>
<path d="M434 417C434 414.791 435.791 413 438 413H505C507.209 413 509 414.791 509 417V456C509 458.209 507.209 460 505 460H438C435.791 460 434 458.209 434 456V417Z" fill="#A5D09E"/>
<path d="M434 413H509H434ZM509 460H434H509ZM438 460C432.477 460 428 455.523 428 450V423C428 417.477 432.477 413 438 413H440C440 413 440 414.791 440 417V456C440 458.209 440 460 440 460H438ZM505 413C510.523 413 515 417.477 515 423V450C515 455.523 510.523 460 505 460H503C503 460 503 458.209 503 456V417C503 414.791 503 413 503 413H505Z" fill="#408D47" mask="url(#path-55-inside-19_2_3)"/>
<path d="M469.589 449V447.412H466.195V439.034H469.472V443.521C469.472 443.653 469.537 443.719 469.667 443.719H473.138C473.268 443.719 473.333 443.653 473.333 443.521L473.372 436.771C473.372 436.638 473.307 436.572 473.177 436.572H469.238C468.197 436.572 467.391 436.241 466.819 435.579C466.273 434.918 466 434.018 466 432.879V427.281C466 426.196 466.338 425.309 467.014 424.621C467.716 423.932 468.6 423.588 469.667 423.588H469.784V422H473.411V423.588H476.805V430.735H473.528V427.479C473.528 427.347 473.463 427.281 473.333 427.281H469.862C469.732 427.281 469.667 427.347 469.667 427.479V432.681C469.667 432.813 469.732 432.879 469.862 432.879H473.333C474.478 432.879 475.375 433.224 476.025 433.912C476.675 434.574 477 435.46 477 436.572V443.719C477 444.778 476.649 445.665 475.947 446.379C475.271 447.068 474.4 447.412 473.333 447.412H473.216V449H469.589Z" fill="#408D47"/>
<mask id="path-58-inside-20_2_3" fill="white">
<path d="M536 173C536 170.791 537.791 169 540 169H607C609.209 169 611 170.791 611 173V212C611 214.209 609.209 216 607 216H540C537.791 216 536 214.209 536 212V173Z"/>
</mask>
<path d="M536 173C536 170.791 537.791 169 540 169H607C609.209 169 611 170.791 611 173V212C611 214.209 609.209 216 607 216H540C537.791 216 536 214.209 536 212V173Z" fill="#A5D09E"/>
<path d="M536 169H611H536ZM611 216H536H611ZM540 216C534.477 216 530 211.523 530 206V179C530 173.477 534.477 169 540 169H542C542 169 542 170.791 542 173V212C542 214.209 542 216 542 216H540ZM607 169C612.523 169 617 173.477 617 179V206C617 211.523 612.523 216 607 216H605C605 216 605 214.209 605 212V173C605 170.791 605 169 605 169H607Z" fill="#408D47" mask="url(#path-58-inside-20_2_3)"/>
<path d="M571.589 205V203.412H568.195V195.034H571.472V199.521C571.472 199.653 571.537 199.719 571.667 199.719H575.138C575.268 199.719 575.333 199.653 575.333 199.521L575.372 192.771C575.372 192.638 575.307 192.572 575.177 192.572H571.238C570.197 192.572 569.391 192.241 568.819 191.579C568.273 190.918 568 190.018 568 188.879V183.281C568 182.196 568.338 181.309 569.014 180.621C569.716 179.932 570.6 179.588 571.667 179.588H571.784V178H575.411V179.588H578.805V186.735H575.528V183.479C575.528 183.347 575.463 183.281 575.333 183.281H571.862C571.732 183.281 571.667 183.347 571.667 183.479V188.681C571.667 188.813 571.732 188.879 571.862 188.879H575.333C576.478 188.879 577.375 189.224 578.025 189.912C578.675 190.574 579 191.46 579 192.572V199.719C579 200.778 578.649 201.665 577.947 202.379C577.271 203.068 576.4 203.412 575.333 203.412H575.216V205H571.589Z" fill="#408D47"/>
<mask id="path-61-inside-21_2_3" fill="white">
<path d="M536 234C536 231.791 537.791 230 540 230H607C609.209 230 611 231.791 611 234V273C611 275.209 609.209 277 607 277H540C537.791 277 536 275.209 536 273V234Z"/>
</mask>
<path d="M536 234C536 231.791 537.791 230 540 230H607C609.209 230 611 231.791 611 234V273C611 275.209 609.209 277 607 277H540C537.791 277 536 275.209 536 273V234Z" fill="#A5D09E"/>
<path d="M536 230H611H536ZM611 277H536H611ZM540 277C534.477 277 530 272.523 530 267V240C530 234.477 534.477 230 540 230H542C542 230 542 231.791 542 234V273C542 275.209 542 277 542 277H540ZM607 230C612.523 230 617 234.477 617 240V267C617 272.523 612.523 277 607 277H605C605 277 605 275.209 605 273V234C605 231.791 605 230 605 230H607Z" fill="#408D47" mask="url(#path-61-inside-21_2_3)"/>
<path d="M571.589 266V264.412H568.195V256.034H571.472V260.521C571.472 260.653 571.537 260.719 571.667 260.719H575.138C575.268 260.719 575.333 260.653 575.333 260.521L575.372 253.771C575.372 253.638 575.307 253.572 575.177 253.572H571.238C570.197 253.572 569.391 253.241 568.819 252.579C568.273 251.918 568 251.018 568 249.879V244.281C568 243.196 568.338 242.309 569.014 241.621C569.716 240.932 570.6 240.588 571.667 240.588H571.784V239H575.411V240.588H578.805V247.735H575.528V244.479C575.528 244.347 575.463 244.281 575.333 244.281H571.862C571.732 244.281 571.667 244.347 571.667 244.479V249.681C571.667 249.813 571.732 249.879 571.862 249.879H575.333C576.478 249.879 577.375 250.224 578.025 250.912C578.675 251.574 579 252.46 579 253.572V260.719C579 261.778 578.649 262.665 577.947 263.379C577.271 264.068 576.4 264.412 575.333 264.412H575.216V266H571.589Z" fill="#408D47"/>
<mask id="path-64-inside-22_2_3" fill="white">
<path d="M536 295C536 292.791 537.791 291 540 291H607C609.209 291 611 292.791 611 295V334C611 336.209 609.209 338 607 338H540C537.791 338 536 336.209 536 334V295Z"/>
</mask>
<path d="M536 295C536 292.791 537.791 291 540 291H607C609.209 291 611 292.791 611 295V334C611 336.209 609.209 338 607 338H540C537.791 338 536 336.209 536 334V295Z" fill="#A5D09E"/>
<path d="M536 291H611H536ZM611 338H536H611ZM540 338C534.477 338 530 333.523 530 328V301C530 295.477 534.477 291 540 291H542C542 291 542 292.791 542 295V334C542 336.209 542 338 542 338H540ZM607 291C612.523 291 617 295.477 617 301V328C617 333.523 612.523 338 607 338H605C605 338 605 336.209 605 334V295C605 292.791 605 291 605 291H607Z" fill="#408D47" mask="url(#path-64-inside-22_2_3)"/>
<path d="M571.589 327V325.412H568.195V317.034H571.472V321.521C571.472 321.653 571.537 321.719 571.667 321.719H575.138C575.268 321.719 575.333 321.653 575.333 321.521L575.372 314.771C575.372 314.638 575.307 314.572 575.177 314.572H571.238C570.197 314.572 569.391 314.241 568.819 313.579C568.273 312.918 568 312.018 568 310.879V305.281C568 304.196 568.338 303.309 569.014 302.621C569.716 301.932 570.6 301.588 571.667 301.588H571.784V300H575.411V301.588H578.805V308.735H575.528V305.479C575.528 305.347 575.463 305.281 575.333 305.281H571.862C571.732 305.281 571.667 305.347 571.667 305.479V310.681C571.667 310.813 571.732 310.879 571.862 310.879H575.333C576.478 310.879 577.375 311.224 578.025 311.912C578.675 312.574 579 313.46 579 314.572V321.719C579 322.778 578.649 323.665 577.947 324.379C577.271 325.068 576.4 325.412 575.333 325.412H575.216V327H571.589Z" fill="#408D47"/>
<mask id="path-67-inside-23_2_3" fill="white">
<path d="M536 356C536 353.791 537.791 352 540 352H607C609.209 352 611 353.791 611 356V395C611 397.209 609.209 399 607 399H540C537.791 399 536 397.209 536 395V356Z"/>
</mask>
<path d="M536 356C536 353.791 537.791 352 540 352H607C609.209 352 611 353.791 611 356V395C611 397.209 609.209 399 607 399H540C537.791 399 536 397.209 536 395V356Z" fill="#A5D09E"/>
<path d="M536 352H611H536ZM611 399H536H611ZM540 399C534.477 399 530 394.523 530 389V362C530 356.477 534.477 352 540 352H542C542 352 542 353.791 542 356V395C542 397.209 542 399 542 399H540ZM607 352C612.523 352 617 356.477 617 362V389C617 394.523 612.523 399 607 399H605C605 399 605 397.209 605 395V356C605 353.791 605 352 605 352H607Z" fill="#408D47" mask="url(#path-67-inside-23_2_3)"/>
<path d="M571.589 388V386.412H568.195V378.034H571.472V382.521C571.472 382.653 571.537 382.719 571.667 382.719H575.138C575.268 382.719 575.333 382.653 575.333 382.521L575.372 375.771C575.372 375.638 575.307 375.572 575.177 375.572H571.238C570.197 375.572 569.391 375.241 568.819 374.579C568.273 373.918 568 373.018 568 371.879V366.281C568 365.196 568.338 364.309 569.014 363.621C569.716 362.932 570.6 362.588 571.667 362.588H571.784V361H575.411V362.588H578.805V369.735H575.528V366.479C575.528 366.347 575.463 366.281 575.333 366.281H571.862C571.732 366.281 571.667 366.347 571.667 366.479V371.681C571.667 371.813 571.732 371.879 571.862 371.879H575.333C576.478 371.879 577.375 372.224 578.025 372.912C578.675 373.574 579 374.46 579 375.572V382.719C579 383.778 578.649 384.665 577.947 385.379C577.271 386.068 576.4 386.412 575.333 386.412H575.216V388H571.589Z" fill="#408D47"/>
<mask id="path-70-inside-24_2_3" fill="white">
<path d="M536 417C536 414.791 537.791 413 540 413H607C609.209 413 611 414.791 611 417V456C611 458.209 609.209 460 607 460H540C537.791 460 536 458.209 536 456V417Z"/>
</mask>
<path d="M536 417C536 414.791 537.791 413 540 413H607C609.209 413 611 414.791 611 417V456C611 458.209 609.209 460 607 460H540C537.791 460 536 458.209 536 456V417Z" fill="#A5D09E"/>
<path d="M536 413H611H536ZM611 460H536H611ZM540 460C534.477 460 530 455.523 530 450V423C530 417.477 534.477 413 540 413H542C542 413 542 414.791 542 417V456C542 458.209 542 460 542 460H540ZM607 413C612.523 413 617 417.477 617 423V450C617 455.523 612.523 460 607 460H605C605 460 605 458.209 605 456V417C605 414.791 605 413 605 413H607Z" fill="#408D47" mask="url(#path-70-inside-24_2_3)"/>
<path d="M571.589 449V447.412H568.195V439.034H571.472V443.521C571.472 443.653 571.537 443.719 571.667 443.719H575.138C575.268 443.719 575.333 443.653 575.333 443.521L575.372 436.771C575.372 436.638 575.307 436.572 575.177 436.572H571.238C570.197 436.572 569.391 436.241 568.819 435.579C568.273 434.918 568 434.018 568 432.879V427.281C568 426.196 568.338 425.309 569.014 424.621C569.716 423.932 570.6 423.588 571.667 423.588H571.784V422H575.411V423.588H578.805V430.735H575.528V427.479C575.528 427.347 575.463 427.281 575.333 427.281H571.862C571.732 427.281 571.667 427.347 571.667 427.479V432.681C571.667 432.813 571.732 432.879 571.862 432.879H575.333C576.478 432.879 577.375 433.224 578.025 433.912C578.675 434.574 579 435.46 579 436.572V443.719C579 444.778 578.649 445.665 577.947 446.379C577.271 447.068 576.4 447.412 575.333 447.412H575.216V449H571.589Z" fill="#408D47"/>
<mask id="path-73-inside-25_2_3" fill="white">
<path d="M638 295C638 292.791 639.791 291 642 291H709C711.209 291 713 292.791 713 295V334C713 336.209 711.209 338 709 338H642C639.791 338 638 336.209 638 334V295Z"/>
</mask>
<path d="M638 295C638 292.791 639.791 291 642 291H709C711.209 291 713 292.791 713 295V334C713 336.209 711.209 338 709 338H642C639.791 338 638 336.209 638 334V295Z" fill="#A5D09E"/>
<path d="M638 291H713H638ZM713 338H638H713ZM642 338C636.477 338 632 333.523 632 328V301C632 295.477 636.477 291 642 291H644C644 291 644 292.791 644 295V334C644 336.209 644 338 644 338H642ZM709 291C714.523 291 719 295.477 719 301V328C719 333.523 714.523 338 709 338H707C707 338 707 336.209 707 334V295C707 292.791 707 291 707 291H709Z" fill="#408D47" mask="url(#path-73-inside-25_2_3)"/>
<path d="M673.589 327V325.412H670.195V317.034H673.472V321.521C673.472 321.653 673.537 321.719 673.667 321.719H677.138C677.268 321.719 677.333 321.653 677.333 321.521L677.372 314.771C677.372 314.638 677.307 314.572 677.177 314.572H673.238C672.197 314.572 671.391 314.241 670.819 313.579C670.273 312.918 670 312.018 670 310.879V305.281C670 304.196 670.338 303.309 671.014 302.621C671.716 301.932 672.6 301.588 673.667 301.588H673.784V300H677.411V301.588H680.805V308.735H677.528V305.479C677.528 305.347 677.463 305.281 677.333 305.281H673.862C673.732 305.281 673.667 305.347 673.667 305.479V310.681C673.667 310.813 673.732 310.879 673.862 310.879H677.333C678.478 310.879 679.375 311.224 680.025 311.912C680.675 312.574 681 313.46 681 314.572V321.719C681 322.778 680.649 323.665 679.947 324.379C679.271 325.068 678.4 325.412 677.333 325.412H677.216V327H673.589Z" fill="#408D47"/>
<mask id="path-76-inside-26_2_3" fill="white">
<path d="M638 356C638 353.791 639.791 352 642 352H709C711.209 352 713 353.791 713 356V395C713 397.209 711.209 399 709 399H642C639.791 399 638 397.209 638 395V356Z"/>
</mask>
<path d="M638 356C638 353.791 639.791 352 642 352H709C711.209 352 713 353.791 713 356V395C713 397.209 711.209 399 709 399H642C639.791 399 638 397.209 638 395V356Z" fill="#A5D09E"/>
<path d="M638 352H713H638ZM713 399H638H713ZM642 399C636.477 399 632 394.523 632 389V362C632 356.477 636.477 352 642 352H644C644 352 644 353.791 644 356V395C644 397.209 644 399 644 399H642ZM709 352C714.523 352 719 356.477 719 362V389C719 394.523 714.523 399 709 399H707C707 399 707 397.209 707 395V356C707 353.791 707 352 707 352H709Z" fill="#408D47" mask="url(#path-76-inside-26_2_3)"/>
<path d="M673.589 388V386.412H670.195V378.034H673.472V382.521C673.472 382.653 673.537 382.719 673.667 382.719H677.138C677.268 382.719 677.333 382.653 677.333 382.521L677.372 375.771C677.372 375.638 677.307 375.572 677.177 375.572H673.238C672.197 375.572 671.391 375.241 670.819 374.579C670.273 373.918 670 373.018 670 371.879V366.281C670 365.196 670.338 364.309 671.014 363.621C671.716 362.932 672.6 362.588 673.667 362.588H673.784V361H677.411V362.588H680.805V369.735H677.528V366.479C677.528 366.347 677.463 366.281 677.333 366.281H673.862C673.732 366.281 673.667 366.347 673.667 366.479V371.681C673.667 371.813 673.732 371.879 673.862 371.879H677.333C678.478 371.879 679.375 372.224 680.025 372.912C680.675 373.574 681 374.46 681 375.572V382.719C681 383.778 680.649 384.665 679.947 385.379C679.271 386.068 678.4 386.412 677.333 386.412H677.216V388H673.589Z" fill="#408D47"/>
<mask id="path-79-inside-27_2_3" fill="white">
<path d="M638 417C638 414.791 639.791 413 642 413H709C711.209 413 713 414.791 713 417V456C713 458.209 711.209 460 709 460H642C639.791 460 638 458.209 638 456V417Z"/>
</mask>
<path d="M638 417C638 414.791 639.791 413 642 413H709C711.209 413 713 414.791 713 417V456C713 458.209 711.209 460 709 460H642C639.791 460 638 458.209 638 456V417Z" fill="#A5D09E"/>
<path d="M638 413H713H638ZM713 460H638H713ZM642 460C636.477 460 632 455.523 632 450V423C632 417.477 636.477 413 642 413H644C644 413 644 414.791 644 417V456C644 458.209 644 460 644 460H642ZM709 413C714.523 413 719 417.477 719 423V450C719 455.523 714.523 460 709 460H707C707 460 707 458.209 707 456V417C707 414.791 707 413 707 413H709Z" fill="#408D47" mask="url(#path-79-inside-27_2_3)"/>
<path d="M673.589 449V447.412H670.195V439.034H673.472V443.521C673.472 443.653 673.537 443.719 673.667 443.719H677.138C677.268 443.719 677.333 443.653 677.333 443.521L677.372 436.771C677.372 436.638 677.307 436.572 677.177 436.572H673.238C672.197 436.572 671.391 436.241 670.819 435.579C670.273 434.918 670 434.018 670 432.879V427.281C670 426.196 670.338 425.309 671.014 424.621C671.716 423.932 672.6 423.588 673.667 423.588H673.784V422H677.411V423.588H680.805V430.735H677.528V427.479C677.528 427.347 677.463 427.281 677.333 427.281H673.862C673.732 427.281 673.667 427.347 673.667 427.479V432.681C673.667 432.813 673.732 432.879 673.862 432.879H677.333C678.478 432.879 679.375 433.224 680.025 433.912C680.675 434.574 681 435.46 681 436.572V443.719C681 444.778 680.649 445.665 679.947 446.379C679.271 447.068 678.4 447.412 677.333 447.412H677.216V449H673.589Z" fill="#408D47"/>
<mask id="path-82-inside-28_2_3" fill="white">
<rect x="135" y="123.035" width="171" height="261" rx="10" transform="rotate(-15.2698 135 123.035)"/>
</mask>
<rect x="135" y="123.035" width="171" height="261" rx="10" transform="rotate(-15.2698 135 123.035)" fill="#F4F4F4" stroke="#403939" stroke-width="22" mask="url(#path-82-inside-28_2_3)"/>
<path d="M199.646 150.997C202.171 160.246 197.575 168.148 191.319 169.856C185.064 171.564 177.089 167.093 174.564 157.844C172.039 148.596 176.636 140.693 182.891 138.986C189.147 137.278 197.121 141.748 199.646 150.997Z" stroke="#403939" stroke-width="10"/>
<line x1="191.179" y1="158.091" x2="210.301" y2="167.383" stroke="#403939" stroke-width="9"/>
<mask id="path-85-inside-29_2_3" fill="white">
<rect x="284.645" y="65.9011" width="171" height="261" rx="10" transform="rotate(19.5677 284.645 65.9011)"/>
</mask>
<rect x="284.645" y="65.9011" width="171" height="261" rx="10" transform="rotate(19.5677 284.645 65.9011)" fill="#F4F4F4" stroke="#E17171" stroke-width="22" mask="url(#path-85-inside-29_2_3)"/>
<rect width="71.6097" height="71.6097" rx="5" transform="matrix(0.860639 -0.509216 0.346165 0.938174 272.52 208.351)" fill="#E17171"/>
<mask id="path-87-inside-30_2_3" fill="white">
<path d="M288.336 127.176L316.181 102.582L322.257 139.233L294.412 163.828L288.336 127.176Z"/>
</mask>
<path d="M316.181 102.582L322.927 96.6237L321.455 87.7449L314.71 93.7029L316.181 102.582ZM289.808 136.055L317.653 111.461L314.71 93.7029L286.864 118.297L289.808 136.055ZM309.436 108.54L315.511 145.191L329.002 133.275L322.927 96.6237L309.436 108.54Z" fill="#E17171" mask="url(#path-87-inside-30_2_3)"/>
<path d="M356.275 343.248L314.693 279.205L388.21 274.908L431.132 341.016L356.275 343.248Z" fill="#F1F1F1" stroke="#B5B5B5"/>
<path d="M465.396 272.591L423.452 207.99L388.949 274.21L432.245 340.894L465.396 272.591Z" fill="#D1D1D1" stroke="#B5B5B5"/>
<path d="M314.927 278.619L349.614 211.481L422.973 207.276L388.158 273.911L314.927 278.619Z" fill="#E6E5E5" stroke="#B5B5B5"/>
<path d="M349.188 252.823C349.874 253.878 349.937 255.245 349.412 256.639C348.887 258.033 347.784 259.42 346.208 260.443C344.632 261.466 342.917 261.91 341.429 261.822C339.942 261.734 338.72 261.12 338.034 260.065C337.349 259.01 337.286 257.643 337.811 256.249C338.335 254.854 339.439 253.468 341.015 252.445C342.591 251.422 344.306 250.978 345.793 251.066C347.281 251.154 348.503 251.768 349.188 252.823Z" fill="#797979" stroke="#B5B5B5"/>
<path d="M398.422 220.857C399.107 221.912 399.171 223.278 398.646 224.673C398.121 226.067 397.017 227.454 395.442 228.477C393.866 229.5 392.15 229.944 390.663 229.856C389.176 229.768 387.953 229.154 387.268 228.099C386.583 227.043 386.52 225.677 387.044 224.282C387.569 222.888 388.673 221.502 390.249 220.479C391.824 219.455 393.54 219.011 395.027 219.099C396.515 219.187 397.737 219.801 398.422 220.857Z" fill="#797979" stroke="#B5B5B5"/>
<path d="M351.389 292.57C352.511 294.297 352.999 296.18 352.902 297.814C352.805 299.448 352.13 300.797 350.963 301.555C349.796 302.313 348.289 302.38 346.757 301.803C345.225 301.227 343.704 300.015 342.583 298.288C341.461 296.561 340.973 294.679 341.07 293.045C341.167 291.411 341.842 290.061 343.009 289.304C344.176 288.546 345.683 288.479 347.215 289.055C348.747 289.632 350.268 290.843 351.389 292.57Z" fill="#797979" stroke="#B5B5B5"/>
<path d="M382.624 290.899C383.745 292.626 384.233 294.508 384.136 296.142C384.04 297.776 383.365 299.126 382.198 299.883C381.031 300.641 379.523 300.708 377.991 300.132C376.459 299.555 374.939 298.344 373.817 296.617C372.696 294.89 372.208 293.007 372.305 291.373C372.401 289.739 373.076 288.39 374.243 287.632C375.41 286.874 376.917 286.807 378.45 287.384C379.982 287.96 381.502 289.172 382.624 290.899Z" fill="#797979" stroke="#B5B5B5"/>
<path d="M395.935 320.452C397.057 322.179 397.545 324.061 397.448 325.695C397.351 327.329 396.676 328.679 395.509 329.436C394.343 330.194 392.835 330.261 391.303 329.685C389.771 329.108 388.25 327.897 387.129 326.17C386.008 324.443 385.52 322.56 385.616 320.926C385.713 319.292 386.388 317.943 387.555 317.185C388.722 316.427 390.229 316.36 391.761 316.937C393.293 317.513 394.814 318.725 395.935 320.452Z" fill="#797979" stroke="#B5B5B5"/>
<path d="M371.519 323.573C372.64 325.3 373.128 327.182 373.031 328.816C372.935 330.45 372.26 331.8 371.093 332.558C369.926 333.315 368.418 333.383 366.886 332.806C365.354 332.23 363.834 331.018 362.712 329.291C361.591 327.564 361.103 325.682 361.2 324.048C361.296 322.413 361.971 321.064 363.138 320.306C364.305 319.549 365.812 319.481 367.345 320.058C368.877 320.634 370.397 321.846 371.519 323.573Z" fill="#797979" stroke="#B5B5B5"/>
<path d="M432.731 270.055C434.71 273.102 434.22 276.711 431.934 278.195C429.648 279.68 426.152 278.658 424.174 275.611C422.195 272.563 422.684 268.954 424.97 267.47C427.256 265.986 430.752 267.007 432.731 270.055Z" fill="#797979" stroke="#B5B5B5"/>
<path d="M436.5 377.969V301.61L500.5 338.041V416.861L436.5 377.969Z" fill="#F1F1F1" stroke="#ADADAD"/>
<path d="M566.5 378.13V301.107L501.5 337.858V417.364L566.5 378.13Z" fill="#D1D1D1" stroke="#ADADAD"/>
<path d="M437.015 301.247L502.669 263.826L566.487 300.247L500.999 337.176L437.015 301.247Z" fill="#E6E5E5" stroke="#ADADAD"/>
<path d="M479.799 298.268C479.799 299.526 479.108 300.707 477.908 301.591C476.709 302.474 475.028 303.036 473.149 303.036C471.271 303.036 469.59 302.474 468.391 301.591C467.191 300.707 466.5 299.526 466.5 298.268C466.5 297.01 467.191 295.829 468.391 294.946C469.59 294.062 471.271 293.5 473.149 293.5C475.028 293.5 476.709 294.062 477.908 294.946C479.108 295.829 479.799 297.01 479.799 298.268Z" fill="#797979" stroke="#ADADAD"/>
<path d="M507.644 298.268C507.644 299.526 506.953 300.707 505.754 301.591C504.554 302.474 502.873 303.036 500.995 303.036C499.116 303.036 497.435 302.474 496.236 301.591C495.036 300.707 494.345 299.526 494.345 298.268C494.345 297.01 495.036 295.829 496.236 294.946C497.435 294.062 499.116 293.5 500.995 293.5C502.873 293.5 504.554 294.062 505.754 294.946C506.953 295.829 507.644 297.01 507.644 298.268Z" fill="#797979" stroke="#ADADAD"/>
<path d="M538.5 298.268C538.5 299.526 537.809 300.707 536.609 301.591C535.41 302.474 533.729 303.036 531.851 303.036C529.972 303.036 528.291 302.474 527.092 301.591C525.892 300.707 525.201 299.526 525.201 298.268C525.201 297.01 525.892 295.829 527.092 294.946C528.291 294.062 529.972 293.5 531.851 293.5C533.729 293.5 535.41 294.062 536.609 294.946C537.809 295.829 538.5 297.01 538.5 298.268Z" fill="#797979" stroke="#ADADAD"/>
<path d="M460 332.804C460 334.863 459.384 336.707 458.413 338.025C457.442 339.343 456.141 340.107 454.75 340.107C453.359 340.107 452.058 339.343 451.087 338.025C450.116 336.707 449.5 334.863 449.5 332.804C449.5 330.744 450.116 328.9 451.087 327.582C452.058 326.264 453.359 325.5 454.75 325.5C456.141 325.5 457.442 326.264 458.413 327.582C459.384 328.9 460 330.744 460 332.804Z" fill="#797979" stroke="#ADADAD"/>
<path d="M473.143 356.625C473.143 358.692 472.569 360.542 471.666 361.861C470.762 363.182 469.565 363.929 468.304 363.929C467.042 363.929 465.845 363.182 464.941 361.861C464.038 360.542 463.464 358.692 463.464 356.625C463.464 354.558 464.038 352.708 464.941 351.389C465.845 350.068 467.042 349.321 468.304 349.321C469.565 349.321 470.762 350.068 471.666 351.389C472.569 352.708 473.143 354.558 473.143 356.625Z" fill="#797979" stroke="#ADADAD"/>
<path d="M487.107 348.411C487.107 350.47 486.491 352.314 485.52 353.632C484.549 354.95 483.248 355.714 481.857 355.714C480.466 355.714 479.165 354.95 478.194 353.632C477.223 352.314 476.607 350.47 476.607 348.411C476.607 346.351 477.223 344.507 478.194 343.189C479.165 341.871 480.466 341.107 481.857 341.107C483.248 341.107 484.549 341.871 485.52 343.189C486.491 344.507 487.107 346.351 487.107 348.411Z" fill="#797979" stroke="#ADADAD"/>
<path d="M482.179 380.446C482.179 382.506 481.563 384.35 480.592 385.668C479.621 386.986 478.32 387.75 476.929 387.75C475.537 387.75 474.236 386.986 473.265 385.668C472.294 384.35 471.679 382.506 471.679 380.446C471.679 378.387 472.294 376.543 473.265 375.225C474.236 373.907 475.537 373.143 476.929 373.143C478.32 373.143 479.621 373.907 480.592 375.225C481.563 376.543 482.179 378.387 482.179 380.446Z" fill="#797979" stroke="#ADADAD"/>
<path d="M460 369.768C460 371.827 459.384 373.671 458.413 374.989C457.442 376.307 456.141 377.071 454.75 377.071C453.359 377.071 452.058 376.307 451.087 374.989C450.116 373.671 449.5 371.827 449.5 369.768C449.5 367.709 450.116 365.864 451.087 364.547C452.058 363.229 453.359 362.464 454.75 362.464C456.141 362.464 457.442 363.229 458.413 364.547C459.384 365.864 460 367.709 460 369.768Z" fill="#797979" stroke="#ADADAD"/>
<path d="M527.703 342.544C527.703 346.178 525.327 348.938 522.601 348.938C519.876 348.938 517.5 346.178 517.5 342.544C517.5 338.911 519.876 336.15 522.601 336.15C525.327 336.15 527.703 338.911 527.703 342.544Z" fill="#797979" stroke="#ADADAD"/>
<path d="M527.703 365.812C527.703 369.445 525.327 372.206 522.601 372.206C519.876 372.206 517.5 369.445 517.5 365.812C517.5 362.178 519.876 359.418 522.601 359.418C525.327 359.418 527.703 362.178 527.703 365.812Z" fill="#797979" stroke="#ADADAD"/>
<path d="M527.703 387.356C527.703 390.989 525.327 393.75 522.601 393.75C519.876 393.75 517.5 390.989 517.5 387.356C517.5 383.723 519.876 380.962 522.601 380.962C525.327 380.962 527.703 383.723 527.703 387.356Z" fill="#797979" stroke="#ADADAD"/>
<path d="M553.556 327.894C553.556 331.528 551.18 334.288 548.454 334.288C545.729 334.288 543.353 331.528 543.353 327.894C543.353 324.261 545.729 321.5 548.454 321.5C551.18 321.5 553.556 324.261 553.556 327.894Z" fill="#797979" stroke="#ADADAD"/>
<path d="M553.556 351.162C553.556 354.795 551.18 357.556 548.454 357.556C545.729 357.556 543.353 354.795 543.353 351.162C543.353 347.528 545.729 344.768 548.454 344.768C551.18 344.768 553.556 347.528 553.556 351.162Z" fill="#797979" stroke="#ADADAD"/>
<path d="M553.556 372.706C553.556 376.339 551.18 379.1 548.454 379.1C545.729 379.1 543.353 376.339 543.353 372.706C543.353 369.072 545.729 366.312 548.454 366.312C551.18 366.312 553.556 369.072 553.556 372.706Z" fill="#797979" stroke="#ADADAD"/>
</svg>
